<svg width="303" height="319" viewBox="0 0 303 319" fill="none" xmlns="http://www.w3.org/2000/svg">
<path d="M82.778 120.197C82.778 120.197 46.626 0 157.942 0C269.258 0 235.602 120.197 235.602 120.197H82.778Z" fill="#7F5732"/>
<path d="M221.511 143.758C221.511 143.758 246.416 169.888 230.077 210.919C221.511 232.423 231.297 238.662 231.297 238.662C231.297 238.662 209.646 242.737 212.103 218.214C212.834 210.918 212.086 209.142 205.032 201.24C197.978 193.337 190.986 185.71 194.482 167.438L221.511 143.758Z" fill="#6B4627"/>
<path d="M295.389 253.096C284.867 215.342 232.028 219.53 209.225 208.688C186.422 197.846 189.98 161.469 187.091 155.14H131.453C128.564 161.469 132.127 197.851 109.319 208.688C86.516 219.53 33.677 215.343 23.155 253.096C17.349 273.92 17.63 280.283 16.022 303.356C16.022 303.356 88.522 318.543 157.633 318.543C226.744 318.543 302.521 303.356 302.521 303.356C300.919 280.283 301.195 273.921 295.389 253.096Z" fill="#E8C59E"/>
<path d="M179.761 217.001C202.564 227.843 255.403 223.656 265.925 261.409C271.456 281.239 271.467 287.961 272.838 308.482C290.993 305.666 302.52 303.356 302.52 303.356C300.918 280.289 301.194 273.921 295.387 253.096C284.865 215.342 232.026 219.53 209.223 208.688C186.42 197.846 189.978 161.469 187.089 155.14H157.631C157.633 155.14 156.953 206.164 179.761 217.001Z" fill="#DDB58E"/>
<path d="M61.661 311.056C88.336 314.816 123.398 318.543 157.633 318.543C192.959 318.543 230.021 314.575 257.82 310.697C271.203 298.905 290.976 296.336 302.021 295.887C300.897 278.604 300.515 271.482 295.389 253.097C285.665 218.21 239.807 219.137 214.907 210.926C217.965 228.8 166.03 306.066 159.544 306.066C153.058 306.066 101.185 228.237 104.209 210.735C79.445 219.155 32.956 217.946 23.16 253.098C18.04 271.472 17.652 278.593 16.528 295.865C27.566 296.257 48.065 298.758 61.661 311.056Z" fill="#76C4BB"/>
<path d="M295.389 253.096C285.665 218.209 239.807 219.136 214.907 210.925C215.452 214.106 214.249 219.176 211.872 225.359C234.534 230.103 259.108 236.96 265.925 261.415C270.815 278.951 271.388 286.236 272.406 301.867C283.153 297.46 294.574 296.19 302.021 295.887C300.897 278.597 300.515 271.476 295.389 253.096Z" fill="#56BEB7"/>
<path d="M123.971 192.736C133.2 200.695 144.025 208.586 159.212 210.868C174.449 208.58 185.235 200.526 194.481 192.534C186.792 177.561 189.17 159.704 187.09 155.134H131.452C129.367 159.71 131.694 177.758 123.971 192.736Z" fill="#CCA281"/>
<path d="M212.711 116.076C210.621 127.701 214.05 138.046 220.371 139.183C226.692 140.319 233.511 131.817 235.602 120.193C237.693 108.568 234.263 98.2231 227.942 97.0863C221.621 95.9495 214.802 104.452 212.711 116.076Z" fill="#DDB58E"/>
<path d="M90.4318 97.0954C84.1107 98.2322 80.6813 108.577 82.7718 120.202C84.8624 131.826 91.6814 140.328 98.0024 139.192C104.323 138.055 107.753 127.71 105.662 116.085C103.572 104.461 96.7528 95.9586 90.4318 97.0954Z" fill="#E8C59E"/>
<path d="M159.735 56.161C159.735 56.161 93.861 48.674 93.052 68.088C92.259 87.108 93.176 89.8 93.024 94.269C91.473 138.425 100.488 198.914 159.195 207.749C222.174 198.273 228.003 129.78 224.922 85.293C223.389 63.142 159.735 56.161 159.735 56.161Z" fill="#E8C59E"/>
<path d="M159.195 207.749C253.526 193.557 219.645 46.943 219.645 46.943H205.504C209.377 108.185 214.733 140.717 192.498 176.183C174.883 204.287 159.195 207.749 159.195 207.749Z" fill="#DDB58E"/>
<path d="M91.709 96.989C91.709 96.989 160.781 112.193 197.866 69.56C197.866 69.56 208.096 94.083 225.491 97.112V60.905H91.709V96.989Z" fill="#DDB58E"/>
<path d="M228.076 52.266C219.538 25.911 159.207 20.341 159.195 20.341C159.184 20.341 98.852 25.911 90.314 52.266C81.776 78.627 91.708 96.989 91.708 96.989C111.942 99.372 180.16 96.989 198.724 61.944C205.407 86.894 225.489 97.112 225.489 97.112C225.489 97.112 236.614 78.627 228.076 52.266Z" fill="#7F5732"/>
<path d="M231.994 205.602H208.753C212.339 210.16 212.676 212.487 212.103 218.215C209.647 242.743 231.297 238.663 231.297 238.663C231.297 238.663 221.511 232.424 230.077 210.92C230.796 209.121 231.432 207.344 231.994 205.602Z" fill="#6B4627"/>
<path d="M82.3803 111.948H77.5783V128.709H82.3803V111.948Z" fill="#F47C6D"/>
<path d="M236 111.948H231.198V128.709H236V111.948Z" fill="#F47C6D"/>
<path d="M153.591 1.09108C113.403 2.27013 80.7063 36.3716 80.7063 77.1059V85.4765H77V75.6276C77 54.4115 85.4678 34.5335 100.81 19.6703C116.132 4.80717 136.539 -5.48201 157.938 -4.98258C200.358 -3.98372 234.725 32.6156 234.725 75.6276V85.4765H231.018V75.6276C231.018 55.3306 222.909 36.3117 208.184 22.1276C193.46 7.96336 174.094 0.451981 153.591 1.09108Z" fill="#F47C6D"/>
<path d="M94.5 102.398V136.56C94.5 137.619 93.9422 138.278 93.6033 138.558C93.2445 138.857 92.5076 139.337 91.4716 139.197L77.8231 137.418C76.488 137.259 75.4918 136.12 75.4918 134.782V104.175C75.4918 102.837 76.488 101.698 77.8231 101.539L91.4716 99.7604C92.5275 99.6208 93.265 100.1 93.6033 100.4C93.9416 100.699 94.5 101.339 94.5 102.398Z" fill="#F47C6D"/>
<path d="M240.028 104.454V135.06C240.028 136.399 239.032 137.538 237.697 137.697L224.028 139.475C222.992 139.615 222.255 139.136 221.917 138.836C221.578 138.556 221 137.897 221 136.839V102.677C221 101.618 221.578 100.958 221.917 100.679C222.216 100.419 222.813 100 223.67 100C223.79 100 223.909 100.02 224.029 100.04L237.697 101.818C239.032 101.977 240.028 103.116 240.028 104.454Z" fill="#F47C6D"/>
</svg>
